# WaveFront *.obj file (generated by Autodesk ATF)

mtllib thumb_tip_with_tape.mtl

g thumb_tip.obj (1)

v 0.002145 -0.031196 -0.001792
v -0.006524 -0.030956 -0.001752
v -0.002467 -0.052144 -0.001739
v 0.006828 -0.031037 -0.003531
v -0.009889 -0.030766 -0.003514
v 0.003338 -0.051713 -0.001915
v 0.009426 -0.031037 -0.006787
v 0.010109 -0.030950 -0.019364
v -0.009880 -0.030863 -0.025493
v -0.008007 -0.054009 -0.002127
v -0.009755 -0.030939 -0.003008
v 0.007166 -0.051872 -0.003838
v -0.008967 -0.057203 -0.003232
v -0.010364 -0.056087 -0.003673
v -0.006444 -0.030956 -0.027250
v 0.001717 -0.058070 -0.003729
v 0.009438 -0.052236 -0.007035
v 0.010109 -0.030950 -0.009636
v -0.011737 -0.058235 -0.006549
v -0.011130 -0.033030 -0.024254
v -0.011759 -0.033094 -0.021718
v -0.011786 -0.033263 -0.007661
v 0.007151 -0.055828 -0.005081
v 0.005973 -0.030956 -0.025960
v 0.002409 -0.031091 -0.027182
v -0.009147 -0.054814 -0.026357
v 0.009999 -0.053181 -0.009885
v 0.010114 -0.051713 -0.019386
v -0.006977 -0.053637 -0.026994
v 0.002027 -0.051874 -0.027225
v 0.004984 -0.059872 -0.006916
v 0.009426 -0.031037 -0.022214
v -0.011337 -0.058224 -0.023402
v -0.009225 -0.060706 -0.006030
v 0.000315 -0.062075 -0.008403
v 0.009472 -0.051872 -0.022095
v 0.007768 -0.051952 -0.024653
v -0.009522 -0.058322 -0.025016
v -0.011218 -0.061879 -0.015023
v 0.009062 -0.056638 -0.009111
v 0.008891 -0.056977 -0.019091
v 0.001458 -0.057446 -0.025733
v -0.009616 -0.062153 -0.009089
v 0.007103 -0.059456 -0.010188
v 0.007434 -0.057653 -0.021943
v 0.002826 -0.062254 -0.011581
v -0.009532 -0.061306 -0.021766
v 0.005399 -0.057905 -0.024107
v -0.009225 -0.062860 -0.014580
v 0.005922 -0.060584 -0.018112
v 0.001860 -0.060910 -0.022211
v 0.000646 -0.062606 -0.018297
usemtl Steel_-_Satin
f 1 2 3
f 1 4 5
f 1 5 2
f 1 3 6
f 5 7 8
f 5 8 9
f 2 10 3
f 2 5 11
f 1 6 4
f 5 4 7
f 2 11 10
f 3 10 6
f 6 12 4
f 10 11 14
f 14 13 10
f 4 17 7
f 7 18 8
f 5 19 11
f 10 13 6
f 5 9 21
f 6 23 12
f 4 12 17
f 9 25 15
f 5 22 19
f 18 7 17
f 18 27 28
f 18 28 8
f 9 24 25
f 15 26 9
f 5 21 22
f 14 11 19
f 16 6 13
f 6 16 23
f 15 25 30
f 15 30 29
f 15 29 26
f 12 23 17
f 18 17 27
f 9 26 33
f 9 33 20
f 8 32 24
f 8 24 9
f 9 20 21
f 14 19 34
f 31 23 16
f 14 34 13
f 22 21 19
f 31 16 35
f 24 30 25
f 26 38 33
f 20 33 21
f 17 40 27
f 8 28 32
f 36 32 28
f 16 13 34
f 23 40 17
f 32 37 24
f 24 37 30
f 21 33 19
f 19 39 34
f 27 41 28
f 30 42 29
f 29 38 26
f 19 33 39
f 32 36 37
f 39 43 34
f 28 41 45
f 34 35 16
f 28 45 36
f 40 41 27
f 42 38 29
f 35 46 31
f 23 31 40
f 40 31 44
f 44 41 40
f 34 43 35
f 38 47 33
f 43 39 49
f 45 41 50
f 37 36 45
f 48 42 30
f 38 42 51
f 39 33 47
f 37 48 30
f 46 44 31
f 44 50 41
f 48 37 45
f 51 47 38
f 49 35 43
f 47 49 39
f 44 46 50
f 35 49 46
f 48 51 42
f 46 49 52
f 51 45 50
f 45 51 48
f 47 52 49
f 46 52 50
f 51 50 52
f 51 52 47
# 52 vertices
# 0 texture params
# 0 normals
# 100 facets

# 1 groups
