# WaveFront *.obj file (generated by Autodesk ATF)

mtllib tip_with_tape.mtl

g tip.obj (1)

v 0.002145 -0.019197 0.027208
v -0.006843 -0.018877 0.027225
v -0.006206 -0.039873 0.027272
v 0.002184 -0.039945 0.027188
v 0.005856 -0.018912 0.026039
v 0.010109 -0.018951 0.019364
v 0.008288 -0.019038 0.004947
v -0.008970 -0.018836 0.002529
v -0.010057 -0.018836 0.025679
v 0.005118 -0.040185 0.026473
v 0.008864 -0.018987 0.023105
v -0.008751 -0.045389 0.025863
v -0.009888 -0.018855 0.003559
v 0.008072 -0.040313 0.024167
v -0.010255 -0.043848 0.025549
v -0.011771 -0.021264 0.021776
v -0.011208 -0.019444 0.014579
v 0.004407 -0.044793 0.025386
v 0.010106 -0.018951 0.009556
v -0.006445 -0.018957 0.001750
v -0.010183 -0.044124 0.003445
v -0.011551 -0.045679 0.023206
v 0.010015 -0.039952 0.019986
v 0.003649 -0.019024 0.002112
v 0.010054 -0.041065 0.014420
v -0.006484 -0.040072 0.001745
v -0.011671 -0.021069 0.006665
v -0.008627 -0.045348 0.003250
v 0.000952 -0.046622 0.025067
v 0.003695 -0.048482 0.022478
v 0.007251 -0.044868 0.022910
v 0.009699 -0.040549 0.007759
v -0.011444 -0.048891 0.019894
v 0.005570 -0.041075 0.002873
v 0.002783 -0.040153 0.001831
v -0.009658 -0.049094 0.022262
v -0.011473 -0.046802 0.006170
v 0.009073 -0.044739 0.019103
v -0.011492 -0.049217 0.010544
v 0.008739 -0.040651 0.005645
v 0.008815 -0.044990 0.009693
v 0.001190 -0.044309 0.002598
v 0.000315 -0.050075 0.020597
v -0.010615 -0.050435 0.016064
v -0.009068 -0.048627 0.005915
v 0.006120 -0.048424 0.014573
v 0.006289 -0.045705 0.005634
v 0.003289 -0.047664 0.005393
v -0.009766 -0.049963 0.008468
v 0.000442 -0.050761 0.013606
v 0.003470 -0.049728 0.009124
v 0.000242 -0.050576 0.010123
usemtl Steel_-_Satin
f 1 2 3
f 1 3 4
f 1 5 2
f 5 6 7
f 5 7 8
f 5 8 9
f 5 9 2
f 4 10 5
f 4 5 1
f 5 11 6
f 9 8 13
f 4 12 10
f 5 14 11
f 9 15 2
f 3 12 4
f 12 3 2
f 10 12 18
f 5 10 14
f 9 17 16
f 13 17 9
f 2 15 12
f 7 6 19
f 8 21 13
f 16 22 9
f 10 18 14
f 6 11 23
f 8 7 24
f 8 24 20
f 11 14 23
f 6 23 25
f 6 25 19
f 13 27 17
f 15 9 22
f 20 24 26
f 20 26 8
f 14 31 23
f 19 25 32
f 8 28 21
f 13 21 27
f 16 17 27
f 18 12 29
f 30 18 29
f 14 18 31
f 8 26 28
f 22 16 33
f 24 35 26
f 15 22 12
f 7 19 32
f 24 7 34
f 27 21 37
f 12 22 36
f 30 31 18
f 23 38 25
f 24 34 35
f 27 39 16
f 31 38 23
f 7 32 40
f 26 35 28
f 36 29 12
f 27 37 39
f 25 41 32
f 7 40 34
f 35 42 28
f 16 39 33
f 29 36 30
f 32 41 40
f 34 42 35
f 22 33 36
f 33 39 44
f 30 36 43
f 25 38 41
f 36 33 44
f 41 47 40
f 21 28 45
f 21 45 37
f 36 44 43
f 31 30 38
f 38 30 46
f 42 34 47
f 42 47 48
f 42 48 28
f 39 37 49
f 39 49 44
f 30 43 50
f 38 46 41
f 41 46 47
f 47 46 51
f 40 47 34
f 37 45 49
f 44 50 43
f 30 51 46
f 30 50 51
f 50 44 49
f 47 51 48
f 48 45 28
f 49 52 50
f 48 51 45
f 52 51 50
f 45 52 49
f 45 51 52
# 52 vertices
# 0 texture params
# 0 normals
# 100 facets

# 1 groups
